<svg xmlns="http://www.w3.org/2000/svg" viewBox="0 0 720 160" role="img" aria-labelledby="title"><title id="title">KZ-Brain horizontal logo, light background</title><defs><linearGradient id="g" x1="18" y1="20" x2="110" y2="108" gradientUnits="userSpaceOnUse"><stop stop-color="#0F8F88"/><stop offset="1" stop-color="#505FD7"/></linearGradient></defs><rect width="720" height="160" rx="28" fill="#F5F8FC"/><g transform="translate(20 16)"><rect x="6" y="6" width="116" height="116" rx="34" fill="#E8EEF6"/><path d="M64 23v19M64 86v19M23 64h19M86 64h19M35 35l14 14M79 79l14 14M93 35 79 49M49 79 35 93" stroke="url(#g)" stroke-width="5" stroke-linecap="round"/><circle cx="64" cy="64" r="22" fill="#F5F8FC" stroke="url(#g)" stroke-width="4"/><circle cx="64" cy="64" r="7" fill="#17253A"/><circle cx="64" cy="20" r="5" fill="#0F8F88"/><circle cx="64" cy="108" r="5" fill="#505FD7"/><circle cx="20" cy="64" r="5" fill="#0F8F88"/><circle cx="108" cy="64" r="5" fill="#505FD7"/></g><text x="168" y="84" fill="#17253A" font-family="Inter,Segoe UI,Arial,sans-serif" font-size="52" font-weight="700" letter-spacing="1">KZ<tspan fill="#0F8F88">·</tspan>BRAIN</text><text x="172" y="116" fill="#53657C" font-family="Inter,Segoe UI,Arial,sans-serif" font-size="15" letter-spacing="3">AI INFRASTRUCTURE · FOUNDATION STAGE</text></svg>
